<svg xmlns="http://www.w3.org/2000/svg" viewBox="0 0 680 470" role="img" aria-label="20ft by 8ft shipping container with double doors on the front">
<defs>
<linearGradient id="gTop" x1="0" y1="0" x2="0.4" y2="1"><stop offset="0" stop-color="#5c86a5"/><stop offset="1" stop-color="#3f6b8a"/></linearGradient>
<linearGradient id="gSide2" x1="0" y1="0" x2="0" y2="1"><stop offset="0" stop-color="#33648a"/><stop offset="1" stop-color="#20496b"/></linearGradient>
<linearGradient id="gDoor" x1="0" y1="0" x2="1" y2="0"><stop offset="0" stop-color="#1b4160"/><stop offset="1" stop-color="#123146"/></linearGradient>
<radialGradient id="gShadow" cx="0.5" cy="0.5" r="0.5"><stop offset="0" stop-color="#233" stop-opacity="0.28"/><stop offset="1" stop-color="#233" stop-opacity="0"/></radialGradient>
<marker id="ah" markerWidth="9" markerHeight="9" refX="4.5" refY="4.5" orient="auto"><path d="M1,1 L8,4.5 L1,8 z" fill="#4a4636"/></marker>
</defs>
<ellipse cx="245" cy="320" rx="300" ry="34" fill="url(#gShadow)"/>
<polygon points="410.0,150.0 560.0,150.0 230.0,64.0 80.0,64.0" fill="url(#gTop)"/>
<polygon points="410.0,150.0 80.0,64.0 80.0,223.0 410.0,309.0" fill="url(#gSide2)"/>
<line x1="384.6" y1="143.4" x2="384.6" y2="302.4" stroke="#10324a" stroke-opacity="0.35" stroke-width="4"/>
<line x1="359.2" y1="136.8" x2="359.2" y2="295.8" stroke="#10324a" stroke-opacity="0.35" stroke-width="4"/>
<line x1="333.8" y1="130.2" x2="333.8" y2="289.2" stroke="#10324a" stroke-opacity="0.35" stroke-width="4"/>
<line x1="308.5" y1="123.5" x2="308.5" y2="282.5" stroke="#10324a" stroke-opacity="0.35" stroke-width="4"/>
<line x1="283.1" y1="116.9" x2="283.1" y2="275.9" stroke="#10324a" stroke-opacity="0.35" stroke-width="4"/>
<line x1="257.7" y1="110.3" x2="257.7" y2="269.3" stroke="#10324a" stroke-opacity="0.35" stroke-width="4"/>
<line x1="232.3" y1="103.7" x2="232.3" y2="262.7" stroke="#10324a" stroke-opacity="0.35" stroke-width="4"/>
<line x1="206.9" y1="97.1" x2="206.9" y2="256.1" stroke="#10324a" stroke-opacity="0.35" stroke-width="4"/>
<line x1="181.5" y1="90.5" x2="181.5" y2="249.5" stroke="#10324a" stroke-opacity="0.35" stroke-width="4"/>
<line x1="156.2" y1="83.8" x2="156.2" y2="242.8" stroke="#10324a" stroke-opacity="0.35" stroke-width="4"/>
<line x1="130.8" y1="77.2" x2="130.8" y2="236.2" stroke="#10324a" stroke-opacity="0.35" stroke-width="4"/>
<line x1="105.4" y1="70.6" x2="105.4" y2="229.6" stroke="#10324a" stroke-opacity="0.35" stroke-width="4"/>
<polyline points="80.0,64.0 410.0,150.0 560.0,150.0" fill="none" stroke="#6f97b4" stroke-width="2" stroke-opacity="0.7"/>
<polygon points="410.0,150.0 560.0,150.0 560.0,309.0 410.0,309.0" fill="url(#gDoor)"/>
<line x1="485.0" y1="154" x2="485.0" y2="305" stroke="#0c2536" stroke-width="3"/>
<rect x="432.0" y="158" width="4" height="143" rx="2" fill="#cdd8e0"/>
<rect x="462.0" y="158" width="4" height="143" rx="2" fill="#cdd8e0"/>
<rect x="504.0" y="158" width="4" height="143" rx="2" fill="#cdd8e0"/>
<rect x="534.0" y="158" width="4" height="143" rx="2" fill="#cdd8e0"/>
<rect x="429.0" y="232.7" width="10" height="8" rx="3" fill="#00A34A"/>
<rect x="459.0" y="232.7" width="10" height="8" rx="3" fill="#00A34A"/>
<rect x="501.0" y="232.7" width="10" height="8" rx="3" fill="#00A34A"/>
<rect x="531.0" y="232.7" width="10" height="8" rx="3" fill="#00A34A"/>
<line x1="410.0" y1="150.0" x2="410.0" y2="309.0" stroke="#2b5678" stroke-width="2"/>
<rect x="71.0" y="57.0" width="18" height="14" rx="2.5" fill="#9fb0bd" stroke="#6f8492" stroke-width="1.2"/>
<rect x="71.0" y="216.0" width="18" height="14" rx="2.5" fill="#9fb0bd" stroke="#6f8492" stroke-width="1.2"/>
<rect x="401.0" y="143.0" width="18" height="14" rx="2.5" fill="#9fb0bd" stroke="#6f8492" stroke-width="1.2"/>
<rect x="401.0" y="302.0" width="18" height="14" rx="2.5" fill="#9fb0bd" stroke="#6f8492" stroke-width="1.2"/>
<rect x="551.0" y="143.0" width="18" height="14" rx="2.5" fill="#9fb0bd" stroke="#6f8492" stroke-width="1.2"/>
<rect x="551.0" y="302.0" width="18" height="14" rx="2.5" fill="#9fb0bd" stroke="#6f8492" stroke-width="1.2"/>
<line x1="566" y1="150" x2="606" y2="150" stroke="#c9c4b5" stroke-width="1"/>
<line x1="566" y1="309" x2="606" y2="309" stroke="#c9c4b5" stroke-width="1"/>
<line x1="600" y1="152" x2="600" y2="307" stroke="#4a4636" stroke-width="1.6" marker-start="url(#ah)" marker-end="url(#ah)"/>
<text x="616" y="230" font-family="Arial,sans-serif" font-size="17" font-weight="700" fill="#4a4636" text-anchor="middle" transform="rotate(90 616 230)">8ft 6in</text>
<line x1="410" y1="315" x2="410" y2="357" stroke="#c9c4b5" stroke-width="1"/>
<line x1="560" y1="315" x2="560" y2="357" stroke="#c9c4b5" stroke-width="1"/>
<line x1="412" y1="351" x2="558" y2="351" stroke="#4a4636" stroke-width="1.6" marker-start="url(#ah)" marker-end="url(#ah)"/>
<text x="485" y="373" font-family="Arial,sans-serif" font-size="17" font-weight="700" fill="#4a4636" text-anchor="middle">8ft (2.4m)</text>
<line x1="410" y1="315" x2="400.0" y2="349.0" stroke="#c9c4b5" stroke-width="1"/>
<line x1="80" y1="229" x2="70.0" y2="263.0" stroke="#c9c4b5" stroke-width="1"/>
<line x1="400.0" y1="349.0" x2="70.0" y2="263.0" stroke="#4a4636" stroke-width="1.6" marker-start="url(#ah)" marker-end="url(#ah)"/>
<text x="235" y="296" font-family="Arial,sans-serif" font-size="17" font-weight="700" fill="#4a4636" text-anchor="middle" transform="rotate(14.6 235 296)">20ft (6.1m)</text>
</svg>